<svg id="Layer_1" data-name="Layer 1" xmlns="http://www.w3.org/2000/svg" viewBox="0 0 132.5 106.15"><defs><style>.cls-1{isolation:isolate;}.cls-2{fill:#c3952e;}.cls-3{fill:#333;}</style></defs><g class="cls-1"><path d="M910.43,567.88a3.83,3.83,0,0,1-.92,2.56,4.45,4.45,0,0,1-2.52,1.43,13.32,13.32,0,0,1-2.4.34q-1.12,0-6.62,0a7.2,7.2,0,0,1-.91,0,.16.16,0,0,1-.15-.17q0-.21.78-.21c.52,0,.85-.08,1-.23a2.12,2.12,0,0,0,.19-1.12V556.75c0-.46-.38-.7-1.12-.72-.57,0-.85-.08-.85-.2s.18-.21.53-.21h6.74q5.55,0,5.55,3.81,0,3.15-4.13,3.9l-.05.09a8.05,8.05,0,0,1,3.36,1.28A4,4,0,0,1,910.43,567.88Zm-3.84-.11c0-2.26-.65-3.57-1.93-3.94a8.6,8.6,0,0,0-2.18-.21V565c0,.4,0,1-.05,1.7,0,.37,0,1.06,0,2.07a12.15,12.15,0,0,0,.14,2.76c.13.17.49.26,1.08.26Q906.59,571.8,906.59,567.77Zm-.46-8.21c0-2.32-.71-3.48-2.12-3.48a4.44,4.44,0,0,0-1,.07.7.7,0,0,0-.52.75v6.33a4.21,4.21,0,0,0,2.87-.74A4.08,4.08,0,0,0,906.13,559.56Z" transform="translate(-896.89 -489.21)"/><path d="M930.25,572a.21.21,0,0,1-.18.23,8,8,0,0,1-.92,0l-1.08,0-2.45-.05-1.39,0-1.64.05c-.43,0-.64-.08-.64-.24s.45-.25,1.36-.26a2.05,2.05,0,0,0,.51-.05c.25,0,.38-.13.38-.29a6.38,6.38,0,0,0-.29-1l-.5-1.56c-.1-.35-.3-1-.62-1.94h-2.31c-.67,0-1.38,0-2.13,0-.15.32-.42,1-.82,2.16l-.53,1.56a1.92,1.92,0,0,0-.12.58c0,.27.18.45.53.53.08,0,.47,0,1.18.09q.33,0,.33.21c0,.13-.14.2-.43.2h-4.27c-.23,0-.34-.08-.34-.24s.25-.16.75-.19a1.75,1.75,0,0,0,1.22-.36,8.93,8.93,0,0,0,.86-2c.31-.8.75-2,1.32-3.55l2.91-8c.14-.35.34-.9.6-1.66.17-.54.31-.81.41-.81s.27.37.52,1.1c.32,1,1.73,4.67,4.23,11.19.32.83.64,1.68,1,2.54a2.63,2.63,0,0,0,.81,1.34,3.29,3.29,0,0,0,1.49.17C930.15,571.75,930.25,571.82,930.25,572Zm-7.63-5.62c0-.05-.07-.2-.17-.46-.64-1.85-1.11-3.15-1.4-3.9l-.32-.92-.16-.43c-.29.69-.64,1.64-1.05,2.86s-.8,2.31-1,2.85h4.11Z" transform="translate(-896.89 -489.21)"/><path d="M948,571.27c0,.9-.59,1.35-1.76,1.35a4.6,4.6,0,0,1-3.52-1.4,4,4,0,0,1-1.18-2.31l-.24-2a5.14,5.14,0,0,0-.88-2.63,2.52,2.52,0,0,0-2-.72v5.46c0,1.27,0,2,0,2.05a.58.58,0,0,0,.33.57,3.61,3.61,0,0,0,1.27.15c.39,0,.58.08.58.22s-.1.19-.29.19H933c-.22,0-.33-.06-.33-.17s.33-.21,1-.24.87-.16,1-.38a3.78,3.78,0,0,0,.07-1V558a13.33,13.33,0,0,0,0-1.48.52.52,0,0,0-.32-.35,3.08,3.08,0,0,0-1.08-.14c-.35,0-.52-.08-.52-.22s.07-.18.21-.2a8.65,8.65,0,0,1,1.15,0h4.83a13.25,13.25,0,0,1,4.58.53,3.5,3.5,0,0,1,1.54,1.25,3.2,3.2,0,0,1,.57,1.84,3.59,3.59,0,0,1-2.4,3.41,10.89,10.89,0,0,1-3.12.72l0,.15a5.61,5.61,0,0,1,3.79,1.38,6.26,6.26,0,0,1,1.42,3.92,6.27,6.27,0,0,0,.6,2.7,1.1,1.1,0,0,0,.84.54c.24,0,.36-.06.36-.19s-.09-.15-.28-.27a.53.53,0,0,1-.27-.48c0-.43.24-.64.72-.64S948,570.73,948,571.27Zm-6.08-12.12c0-2.06-.81-3.1-2.44-3.1-.53,0-.86.18-1,.53a14.31,14.31,0,0,0-.12,2.62v4a3.35,3.35,0,0,0,2.71-.93A4.65,4.65,0,0,0,941.91,559.15Z" transform="translate(-896.89 -489.21)"/><path d="M963.9,568s0,.77,0,2.23c0,.77,0,1.32,0,1.66s0,.49,0,.48c-4.23-.2-7.93-.25-11.09-.17h-2c-.29,0-.43-.06-.43-.18s0-.15.11-.16a6.67,6.67,0,0,1,.73-.07c.75,0,1.16-.26,1.22-.65a4.75,4.75,0,0,0,0-.69V558.31c0-1,0-1.49,0-1.58a.65.65,0,0,0-.24-.53,1.76,1.76,0,0,0-.89-.15q-.75,0-.75-.21c0-.16.22-.24.67-.24l1.83,0c2.94-.07,5.35-.08,7.23-.05h1.63c.35,0,.78,0,1.29-.07l.22,2.61c.08.83.12,1.35.12,1.54a.21.21,0,0,1-.24.24c-.16,0-.27-.21-.31-.63a3.3,3.3,0,0,0-1.34-2.41,6,6,0,0,0-3.31-.76c-.45,0-1.22,0-2.31.08v7.08a8.48,8.48,0,0,0,3.34-.37c.46-.27.76-1,.93-2.06.08-.59.2-.88.36-.88s.21.14.21.43,0,.88-.07,1.77c0,.31,0,.72,0,1.23,0,1.37,0,2.41,0,3.12a3.21,3.21,0,0,1,0,.36c0,.19-.07.29-.22.29a.21.21,0,0,1-.21-.11,4.35,4.35,0,0,1-.15-.78,4.26,4.26,0,0,0-.66-2.13,3,3,0,0,0-1.94-.42H956v8.07h1.54c1.76,0,2.84-.07,3.22-.12a3.49,3.49,0,0,0,1.4-.53,2.61,2.61,0,0,0,.83-1,11.18,11.18,0,0,0,.49-2q.07-.36.24-.36C963.83,567.65,963.9,567.77,963.9,568Z" transform="translate(-896.89 -489.21)"/><path d="M978.18,567.48a4.7,4.7,0,0,1-1.55,3.61,5.61,5.61,0,0,1-4,1.43,12.33,12.33,0,0,1-4-1,1,1,0,0,0-.34-.08c-.27,0-.48.29-.62.87-.05.17-.11.26-.19.26s-.2-.11-.2-.33a8.77,8.77,0,0,1,.12-1.11,9.62,9.62,0,0,0,.1-1.51c0-.46,0-.83,0-1.1,0-.55,0-.87,0-1q0-.39.24-.39c.16,0,.3.35.43,1a4.53,4.53,0,0,0,1.51,2.76,4.19,4.19,0,0,0,2.74,1.06,3.08,3.08,0,0,0,2.18-.82,2.59,2.59,0,0,0,.89-2,2.25,2.25,0,0,0-.57-1.61,17.87,17.87,0,0,0-2.79-1.7,9.74,9.74,0,0,1-3.55-2.79,5.19,5.19,0,0,1-.86-3,4.46,4.46,0,0,1,1.46-3.42,5.24,5.24,0,0,1,3.7-1.35,6.69,6.69,0,0,1,2.56.57,2,2,0,0,0,.65.19c.24,0,.4-.2.48-.62,0-.14.1-.22.22-.22s.24.11.24.32,0,.3-.05.67,0,.67,0,.91a18,18,0,0,0,.1,2.11.92.92,0,0,1,0,.19c0,.15-.06.22-.19.22s-.29-.26-.43-.77a5,5,0,0,0-.76-1.52,3.92,3.92,0,0,0-1.09-1.1,3.69,3.69,0,0,0-3.82.22,2.17,2.17,0,0,0-.79,1.78,2.42,2.42,0,0,0,.75,1.74,13.4,13.4,0,0,0,2.85,1.93,16.61,16.61,0,0,1,3.43,2.3A4.44,4.44,0,0,1,978.18,567.48Z" transform="translate(-896.89 -489.21)"/><path d="M992.48,567.48a4.7,4.7,0,0,1-1.55,3.61,5.61,5.61,0,0,1-3.95,1.43,12.33,12.33,0,0,1-4-1,1,1,0,0,0-.33-.08c-.28,0-.48.29-.63.87,0,.17-.11.26-.19.26s-.19-.11-.19-.33a8.77,8.77,0,0,1,.12-1.11,11.14,11.14,0,0,0,.09-1.51c0-.46,0-.83,0-1.1,0-.55,0-.87,0-1q0-.39.24-.39c.16,0,.31.35.43,1a4.54,4.54,0,0,0,1.52,2.76,4.16,4.16,0,0,0,2.73,1.06,3.1,3.1,0,0,0,2.19-.82,2.58,2.58,0,0,0,.88-2,2.25,2.25,0,0,0-.57-1.61,17.87,17.87,0,0,0-2.79-1.7,9.83,9.83,0,0,1-3.55-2.79,5.26,5.26,0,0,1-.86-3,4.5,4.5,0,0,1,1.46-3.42,5.25,5.25,0,0,1,3.7-1.35,6.74,6.74,0,0,1,2.57.57,1.93,1.93,0,0,0,.64.19c.24,0,.4-.2.48-.62,0-.14.11-.22.22-.22s.24.11.24.32,0,.3,0,.67-.05.67-.05.91a20.43,20.43,0,0,0,.1,2.11.53.53,0,0,1,0,.19c0,.15-.06.22-.19.22s-.29-.26-.43-.77a4.81,4.81,0,0,0-.76-1.52,3.92,3.92,0,0,0-1.09-1.1,3.67,3.67,0,0,0-3.81.22,2.18,2.18,0,0,0-.8,1.78A2.42,2.42,0,0,0,985,560a13.68,13.68,0,0,0,2.85,1.93,16.76,16.76,0,0,1,3.44,2.3A4.48,4.48,0,0,1,992.48,567.48Z" transform="translate(-896.89 -489.21)"/><path d="M1009.9,567l0,.41c0,.08,0,.58-.12,1.51-.06.71-.1,1.25-.1,1.63s0,.88,0,1.2c0,.12,0,.25,0,.41s0,.27-.12.27-.17-.09-.26-.25a2.67,2.67,0,0,0-1.13-1.12,5.87,5.87,0,0,1-3.86,1.53,7.69,7.69,0,0,1-5.55-2.35,8.46,8.46,0,0,1-2.54-6.29,8.65,8.65,0,0,1,2.29-6.13,7.51,7.51,0,0,1,5.72-2.46,5.6,5.6,0,0,1,2.84.72,2.59,2.59,0,0,0,1,.41,1.27,1.27,0,0,0,.94-.46c.21-.22.33-.33.38-.33s.1.05.1.17a1.14,1.14,0,0,1,0,.21,12.68,12.68,0,0,0-.14,2c0,.08,0,.41,0,1v1.66c0,.28-.08.43-.24.43s-.25-.31-.38-.94q-.87-4.32-4-4.32c-1.63,0-2.82,1.06-3.55,3.17a15.58,15.58,0,0,0-.77,5.18q0,4.5,1.82,6.58a3.17,3.17,0,0,0,2.52,1.11q3.39,0,4.44-4.52c.12-.49.24-.74.39-.74S1009.92,566.74,1009.9,567Z" transform="translate(-896.89 -489.21)"/><path d="M1029.39,563.93a8.75,8.75,0,0,1-2.24,6.08,7.26,7.26,0,0,1-11,0,8.73,8.73,0,0,1-2.28-6.07,8.58,8.58,0,0,1,2.27-6.09,7.35,7.35,0,0,1,5.62-2.45,7,7,0,0,1,5.43,2.46A8.9,8.9,0,0,1,1029.39,563.93Zm-4.22.37a16.7,16.7,0,0,0-1.13-7,2.47,2.47,0,0,0-2.35-1.48c-1.09,0-2,.69-2.61,2.08a13.52,13.52,0,0,0-1,5.59c0,3.38.58,5.92,1.73,7.59a2.37,2.37,0,0,0,2.09,1.06,2.28,2.28,0,0,0,2.23-1.51A16.25,16.25,0,0,0,1025.17,564.3Z" transform="translate(-896.89 -489.21)"/></g><g class="cls-1"><path class="cls-2" d="M952.94,511.35V510.3h6.6a11.29,11.29,0,0,0,4.35-.86,7.25,7.25,0,0,0,3.38-2.89,10.35,10.35,0,0,0,1.3-5.61,11.44,11.44,0,0,0-1.3-5.81,8.19,8.19,0,0,0-3.38-3.28,9.49,9.49,0,0,0-4.35-1.05h-17.4v-1.59h17.4q6.81,0,10.91,2.62t4.09,8.48q0,5.85-3.87,8.44t-11.13,2.6Zm-10.8,22.86v-1.59h18a9.4,9.4,0,0,0,4.77-1.26,9.16,9.16,0,0,0,3.51-3.72,12.62,12.62,0,0,0,1.32-6,10.74,10.74,0,0,0-1.32-5.7,7.63,7.63,0,0,0-3.51-3.08,11.91,11.91,0,0,0-4.77-.94h-7.2v-1h7.83a27.24,27.24,0,0,1,7.77,1.05,12.06,12.06,0,0,1,5.67,3.4,9,9,0,0,1,2.13,6.26q0,6.75-4.17,9.67t-11.4,2.93Zm5.4-.6v-43.8h5.73v43.8Z" transform="translate(-896.89 -489.21)"/></g><g class="cls-1"><path class="cls-2" d="M961,511.35V510.3h6.6a11.29,11.29,0,0,0,4.35-.86,7.25,7.25,0,0,0,3.38-2.89,10.35,10.35,0,0,0,1.3-5.61,11.44,11.44,0,0,0-1.3-5.81,8.19,8.19,0,0,0-3.38-3.28,9.49,9.49,0,0,0-4.35-1.05h-17.4v-1.59h17.4q6.81,0,10.91,2.62t4.09,8.48q0,5.85-3.87,8.44t-11.13,2.6Zm-10.8,22.86v-1.59h18a9.4,9.4,0,0,0,4.77-1.26,9.16,9.16,0,0,0,3.51-3.72,12.62,12.62,0,0,0,1.32-6,10.74,10.74,0,0,0-1.32-5.7,7.63,7.63,0,0,0-3.51-3.08,11.91,11.91,0,0,0-4.77-.94H961v-1h7.83a27.24,27.24,0,0,1,7.77,1.05,12.06,12.06,0,0,1,5.67,3.4,9,9,0,0,1,2.13,6.26q0,6.75-4.17,9.67t-11.4,2.93Zm5.4-.6v-43.8h5.73v43.8Z" transform="translate(-896.89 -489.21)"/></g><g class="cls-1"><path class="cls-3" d="M926.27,586.48l2.59,7.35H929l2.59-7.35h1.1l-3.2,8.73h-1.09l-3.21-8.73Z" transform="translate(-896.89 -489.21)"/><path class="cls-3" d="M936.29,586.48v8.73h-1.06v-8.73Z" transform="translate(-896.89 -489.21)"/><path class="cls-3" d="M946.52,586.48v8.73h-1l-4.76-6.85h-.08v6.85H939.6v-8.73h1l4.77,6.87h.09v-6.87Z" transform="translate(-896.89 -489.21)"/><path class="cls-3" d="M949.83,595.21v-8.73h5.27v.94h-4.21v3h3.94v.93h-3.94v3h4.28v.94Z" transform="translate(-896.89 -489.21)"/><path class="cls-3" d="M957.46,586.48h1.21l2.42,4.07h.1l2.42-4.07h1.21l-3.15,5.13v3.6h-1.06v-3.6Z" transform="translate(-896.89 -489.21)"/><path class="cls-3" d="M966.86,595.21h-1.11l3.2-8.73H970l3.21,8.73h-1.11l-2.61-7.35h-.06Zm.41-3.41h4.46v.94h-4.46Z" transform="translate(-896.89 -489.21)"/><path class="cls-3" d="M975.81,595.21v-8.73h3a3.61,3.61,0,0,1,1.68.35,2.23,2.23,0,0,1,1,.95,2.93,2.93,0,0,1,.32,1.38,2.85,2.85,0,0,1-.32,1.36,2.24,2.24,0,0,1-1,.94,3.57,3.57,0,0,1-1.67.34h-2.39v-1h2.36a2.55,2.55,0,0,0,1.12-.2,1.3,1.3,0,0,0,.62-.58,1.93,1.93,0,0,0,.2-.9,2,2,0,0,0-.2-.92,1.41,1.41,0,0,0-.62-.61,2.64,2.64,0,0,0-1.14-.21h-1.86v7.79Zm4.11-3.92,2.15,3.92h-1.23l-2.11-3.92Z" transform="translate(-896.89 -489.21)"/><path class="cls-3" d="M987.38,595.21h-2.7v-8.73h2.82a4.25,4.25,0,0,1,2.17.52,3.46,3.46,0,0,1,1.38,1.5,5.07,5.07,0,0,1,.49,2.33,5.25,5.25,0,0,1-.49,2.34,3.4,3.4,0,0,1-1.42,1.51A4.48,4.48,0,0,1,987.38,595.21Zm-1.64-.94h1.57a3.46,3.46,0,0,0,1.79-.42,2.51,2.51,0,0,0,1.06-1.19,4.27,4.27,0,0,0,.35-1.83,4.38,4.38,0,0,0-.34-1.82,2.59,2.59,0,0,0-1-1.18,3.23,3.23,0,0,0-1.71-.41h-1.69Z" transform="translate(-896.89 -489.21)"/><path class="cls-3" d="M999.28,588.66a1.32,1.32,0,0,0-.62-1,2.39,2.39,0,0,0-1.34-.36,2.43,2.43,0,0,0-1,.19,1.52,1.52,0,0,0-.67.51,1.19,1.19,0,0,0-.25.75,1.08,1.08,0,0,0,.17.6,1.45,1.45,0,0,0,.44.41,2.81,2.81,0,0,0,.55.27l.53.17.89.24a6.47,6.47,0,0,1,.76.24,3.64,3.64,0,0,1,.8.43,2.23,2.23,0,0,1,.64.69,2,2,0,0,1,.25,1,2.28,2.28,0,0,1-.37,1.28,2.46,2.46,0,0,1-1.07.9,3.86,3.86,0,0,1-1.71.34,4,4,0,0,1-1.62-.3,2.49,2.49,0,0,1-1.08-.85,2.41,2.41,0,0,1-.44-1.25h1.09a1.3,1.3,0,0,0,.34.81,1.64,1.64,0,0,0,.74.48,2.78,2.78,0,0,0,1,.16,2.9,2.9,0,0,0,1.09-.2,1.82,1.82,0,0,0,.76-.56,1.26,1.26,0,0,0,.28-.83,1,1,0,0,0-.24-.71,1.91,1.91,0,0,0-.64-.44,8.63,8.63,0,0,0-.86-.3l-1.07-.3a4.13,4.13,0,0,1-1.62-.84,1.85,1.85,0,0,1-.6-1.43,2.08,2.08,0,0,1,.4-1.28,2.58,2.58,0,0,1,1.07-.85,3.87,3.87,0,0,1,3,0,2.62,2.62,0,0,1,1,.82,2.07,2.07,0,0,1,.4,1.18Z" transform="translate(-896.89 -489.21)"/></g></svg>