<svg id="Layer_1" data-name="Layer 1" xmlns="http://www.w3.org/2000/svg" viewBox="0 0 167.48 45"><defs><style>.cls-1{isolation:isolate;}.cls-2{fill:#c3952e;}.cls-3{fill:#333;}</style></defs><g class="cls-1"><path d="M939.88,528.61a3.24,3.24,0,0,1-.76,2.14,3.78,3.78,0,0,1-2.1,1.19,11.7,11.7,0,0,1-2,.28c-.63,0-2.47,0-5.52,0-.43,0-.68,0-.76,0a.13.13,0,0,1-.12-.14c0-.12.21-.18.65-.18s.7-.06.81-.19a1.76,1.76,0,0,0,.16-.93V519.34c0-.39-.31-.59-.94-.6-.47,0-.7-.07-.7-.17s.14-.17.44-.17h5.62q4.62,0,4.62,3.17,0,2.63-3.44,3.25l0,.08a6.8,6.8,0,0,1,2.8,1.06A3.32,3.32,0,0,1,939.88,528.61Zm-3.2-.09c0-1.88-.54-3-1.61-3.28a7,7,0,0,0-1.81-.18v1.16c0,.33,0,.81,0,1.42,0,.31,0,.88,0,1.72a9.56,9.56,0,0,0,.12,2.3c.1.15.4.22.9.22Q936.68,531.88,936.68,528.52Zm-.38-6.84c0-1.93-.59-2.9-1.77-2.9a3.72,3.72,0,0,0-.84.06.58.58,0,0,0-.43.62v5.28a3.5,3.5,0,0,0,2.39-.62A3.41,3.41,0,0,0,936.3,521.68Z" transform="translate(-871.54 -512.22)"/><path d="M956.4,532a.17.17,0,0,1-.15.19,5.62,5.62,0,0,1-.77,0l-.9,0c-1,0-1.67,0-2,0l-1.16,0c-.67,0-1.12,0-1.36,0s-.54-.07-.54-.2.38-.21,1.14-.22a1.56,1.56,0,0,0,.42,0c.21,0,.32-.11.32-.24a5.65,5.65,0,0,0-.24-.84l-.42-1.3c-.08-.29-.26-.83-.52-1.62h-1.92c-.56,0-1.16,0-1.78,0-.12.27-.35.87-.68,1.8l-.44,1.3a1.51,1.51,0,0,0-.1.48c0,.23.14.37.44.44l1,.08c.18,0,.28.07.28.17s-.12.17-.36.17H943c-.19,0-.28-.07-.28-.2s.2-.13.62-.16a1.53,1.53,0,0,0,1-.3,8.09,8.09,0,0,0,.72-1.68c.25-.67.62-1.65,1.1-3l2.42-6.66c.12-.29.28-.75.5-1.38.14-.45.26-.68.34-.68s.22.31.44.92q.39,1.18,3.52,9.32l.8,2.12a2.16,2.16,0,0,0,.68,1.12,2.78,2.78,0,0,0,1.24.14Q956.4,531.84,956.4,532ZM950,527.34s-.06-.17-.14-.38c-.54-1.55-.93-2.63-1.17-3.26l-.27-.76-.13-.36c-.24.58-.53,1.37-.88,2.38s-.66,1.93-.83,2.38H950Z" transform="translate(-871.54 -512.22)"/><path d="M971.18,531.44c0,.75-.49,1.12-1.46,1.12a3.86,3.86,0,0,1-2.94-1.16,3.35,3.35,0,0,1-1-1.93l-.2-1.64a4.4,4.4,0,0,0-.73-2.19,2.12,2.12,0,0,0-1.71-.6v4.55c0,1.06,0,1.63,0,1.71a.47.47,0,0,0,.28.47,2.78,2.78,0,0,0,1.06.13q.48,0,.48.18c0,.11-.08.16-.24.16h-6c-.19,0-.28,0-.28-.14s.27-.18.82-.2.72-.13.8-.32a3.2,3.2,0,0,0,.06-.84V520.41a11.8,11.8,0,0,0,0-1.24.44.44,0,0,0-.26-.29,2.48,2.48,0,0,0-.9-.12c-.3,0-.44-.06-.44-.18s.06-.15.18-.17a8.55,8.55,0,0,1,1,0h4a11.16,11.16,0,0,1,3.82.44,2.9,2.9,0,0,1,1.28,1,2.67,2.67,0,0,1,.48,1.54,3,3,0,0,1-2,2.84,9,9,0,0,1-2.6.6l0,.12a4.71,4.71,0,0,1,3.16,1.15,5.32,5.32,0,0,1,1.18,3.27,5.15,5.15,0,0,0,.5,2.25.91.91,0,0,0,.7.45c.2,0,.3-.05.3-.16s-.08-.13-.23-.22a.43.43,0,0,1-.23-.4q0-.54.6-.54C971,530.76,971.18,531,971.18,531.44Zm-5.06-10.1q0-2.58-2-2.58c-.44,0-.72.15-.82.44a11.51,11.51,0,0,0-.1,2.18v3.32a2.83,2.83,0,0,0,2.26-.78A3.9,3.9,0,0,0,966.12,521.34Z" transform="translate(-871.54 -512.22)"/><path d="M984.44,528.72s0,.65,0,1.86q0,1,0,1.38c0,.28,0,.41,0,.4q-5.28-.24-9.24-.14h-1.68q-.36,0-.36-.15c0-.08,0-.12.09-.13a6,6,0,0,1,.6-.06c.63,0,1-.22,1-.54a5,5,0,0,0,0-.58V520.64c0-.8,0-1.24,0-1.32a.56.56,0,0,0-.2-.44,1.51,1.51,0,0,0-.74-.12c-.42,0-.62-.06-.62-.18s.18-.2.55-.2l1.53,0c2.45-.05,4.46-.07,6,0h1.36q.43,0,1.08-.06l.18,2.18c.06.69.1,1.12.1,1.28a.18.18,0,0,1-.21.2c-.13,0-.22-.17-.26-.52a2.7,2.7,0,0,0-1.11-2,4.94,4.94,0,0,0-2.76-.63q-.56,0-1.92.06v5.9a6.94,6.94,0,0,0,2.78-.31c.38-.22.64-.79.77-1.71.07-.49.17-.74.31-.74s.18.12.18.36,0,.73-.06,1.48q0,.38,0,1c0,1.15,0,2,.05,2.6a2.36,2.36,0,0,1,0,.3c0,.16-.07.24-.19.24a.18.18,0,0,1-.18-.09c0-.06-.06-.28-.12-.65a3.51,3.51,0,0,0-.55-1.77,2.49,2.49,0,0,0-1.62-.35h-1.36v6.72h1.28c1.47,0,2.37-.06,2.69-.1a2.76,2.76,0,0,0,1.16-.44,2.09,2.09,0,0,0,.69-.86,8.68,8.68,0,0,0,.41-1.7q.06-.3.21-.3C984.38,528.42,984.44,528.52,984.44,528.72Z" transform="translate(-871.54 -512.22)"/><path d="M996.34,528.28a3.89,3.89,0,0,1-1.3,3,4.64,4.64,0,0,1-3.28,1.19,10,10,0,0,1-3.36-.82.83.83,0,0,0-.28-.06c-.23,0-.41.24-.52.72,0,.15-.1.22-.16.22s-.16-.09-.16-.28a6.72,6.72,0,0,1,.1-.92,9.21,9.21,0,0,0,.08-1.26c0-.39,0-.69,0-.92,0-.45,0-.72,0-.8s.06-.32.2-.32.25.29.36.86a3.78,3.78,0,0,0,1.25,2.3,3.51,3.51,0,0,0,2.29.88,2.63,2.63,0,0,0,1.82-.68,2.18,2.18,0,0,0,.74-1.66,1.85,1.85,0,0,0-.48-1.34,14.58,14.58,0,0,0-2.32-1.42,8.21,8.21,0,0,1-3-2.32,4.46,4.46,0,0,1-.71-2.52,3.71,3.71,0,0,1,1.21-2.85,4.41,4.41,0,0,1,3.09-1.13,5.56,5.56,0,0,1,2.14.48,1.54,1.54,0,0,0,.54.16c.2,0,.33-.17.4-.52q0-.18.18-.18c.13,0,.2.09.2.26s0,.25-.05.56,0,.56,0,.76a14.79,14.79,0,0,0,.08,1.76.63.63,0,0,1,0,.16c0,.12-.06.18-.16.18s-.24-.21-.36-.64a4.3,4.3,0,0,0-.63-1.27,3.28,3.28,0,0,0-.92-.91,2.62,2.62,0,0,0-1.39-.36,2.72,2.72,0,0,0-1.78.54,1.8,1.8,0,0,0-.66,1.48,2,2,0,0,0,.62,1.45,11,11,0,0,0,2.38,1.61,13.78,13.78,0,0,1,2.86,1.92A3.71,3.71,0,0,1,996.34,528.28Z" transform="translate(-871.54 -512.22)"/><path d="M1008.25,528.28a3.92,3.92,0,0,1-1.29,3,4.65,4.65,0,0,1-3.29,1.19,10.11,10.11,0,0,1-3.36-.82.74.74,0,0,0-.27-.06c-.23,0-.41.24-.52.72,0,.15-.1.22-.16.22s-.16-.09-.16-.28a8.11,8.11,0,0,1,.09-.92,7.75,7.75,0,0,0,.09-1.26c0-.39,0-.69,0-.92,0-.45-.05-.72-.05-.8s.07-.32.21-.32.25.29.36.86a3.78,3.78,0,0,0,1.25,2.3,3.51,3.51,0,0,0,2.29.88,2.59,2.59,0,0,0,1.81-.68,2.15,2.15,0,0,0,.74-1.66,1.89,1.89,0,0,0-.47-1.34,14.9,14.9,0,0,0-2.33-1.42,8.16,8.16,0,0,1-3-2.32,4.39,4.39,0,0,1-.71-2.52,3.71,3.71,0,0,1,1.21-2.85,4.38,4.38,0,0,1,3.08-1.13,5.6,5.6,0,0,1,2.15.48,1.57,1.57,0,0,0,.53.16c.2,0,.34-.17.41-.52,0-.12.08-.18.17-.18s.2.09.2.26,0,.25,0,.56,0,.56,0,.76a17.27,17.27,0,0,0,.08,1.76.35.35,0,0,1,0,.16c0,.12-.06.18-.16.18s-.24-.21-.37-.64a4.07,4.07,0,0,0-.63-1.27,3.26,3.26,0,0,0-.91-.91,2.65,2.65,0,0,0-1.4-.36,2.69,2.69,0,0,0-1.77.54,1.78,1.78,0,0,0-.66,1.48,2,2,0,0,0,.62,1.45,11,11,0,0,0,2.38,1.61,13.63,13.63,0,0,1,2.85,1.92A3.67,3.67,0,0,1,1008.25,528.28Z" transform="translate(-871.54 -512.22)"/><path d="M1022.78,527.84l0,.34c0,.07,0,.49-.1,1.26,0,.59-.08,1-.08,1.36s0,.73,0,1a1.65,1.65,0,0,1,0,.34c0,.15,0,.22-.11.22s-.13-.07-.22-.2a2.26,2.26,0,0,0-.93-.94,4.91,4.91,0,0,1-3.23,1.28,6.42,6.42,0,0,1-4.62-2,7,7,0,0,1-2.12-5.24,7.23,7.23,0,0,1,1.91-5.11,6.26,6.26,0,0,1,4.77-2.05,4.66,4.66,0,0,1,2.37.6,2,2,0,0,0,.87.34,1.06,1.06,0,0,0,.78-.38c.18-.19.29-.28.33-.28s.07.05.07.14a.69.69,0,0,1,0,.18,10,10,0,0,0-.11,1.68c0,.07,0,.34,0,.82v1.38q0,.36-.21.36c-.1,0-.21-.26-.31-.78q-.72-3.6-3.31-3.6c-1.35,0-2.34.88-3,2.64a13.13,13.13,0,0,0-.63,4.32q0,3.74,1.51,5.48a2.68,2.68,0,0,0,2.1.92c1.89,0,3.12-1.25,3.71-3.76.09-.41.19-.62.31-.62S1022.79,527.67,1022.78,527.84Z" transform="translate(-871.54 -512.22)"/><path d="M1039,525.32a7.27,7.27,0,0,1-1.87,5.07,6.06,6.06,0,0,1-9.15,0,7.31,7.31,0,0,1-1.9-5.06,7.18,7.18,0,0,1,1.89-5.08,6.14,6.14,0,0,1,4.69-2,5.82,5.82,0,0,1,4.53,2.05A7.4,7.4,0,0,1,1039,525.32Zm-3.52.31a13.8,13.8,0,0,0-.94-5.87,2,2,0,0,0-2-1.24c-.9,0-1.63.58-2.17,1.74a11.17,11.17,0,0,0-.8,4.65c0,2.82.47,4.93,1.43,6.33a2,2,0,0,0,1.74.88,1.89,1.89,0,0,0,1.86-1.26A13.47,13.47,0,0,0,1035.49,525.63Z" transform="translate(-871.54 -512.22)"/></g><g class="cls-1"><path class="cls-2" d="M882.34,534.36v-1.05h6.6a11.47,11.47,0,0,0,4.35-.85,7.3,7.3,0,0,0,3.37-2.9A10.35,10.35,0,0,0,898,524a11.44,11.44,0,0,0-1.31-5.81,8.22,8.22,0,0,0-3.37-3.28,9.49,9.49,0,0,0-4.35-1.05h-17.4v-1.59h17.4q6.81,0,10.9,2.62t4.1,8.48q0,5.85-3.87,8.44t-11.13,2.6Zm-10.8,22.86v-1.59h18a9.4,9.4,0,0,0,4.77-1.26,9.16,9.16,0,0,0,3.51-3.72,12.62,12.62,0,0,0,1.32-6,10.74,10.74,0,0,0-1.32-5.7,7.63,7.63,0,0,0-3.51-3.08,11.91,11.91,0,0,0-4.77-.94h-7.2v-1h7.83a27.24,27.24,0,0,1,7.77,1.05,12.06,12.06,0,0,1,5.67,3.4,9,9,0,0,1,2.13,6.26q0,6.75-4.17,9.67t-11.4,2.93Zm5.4-.6v-43.8h5.73v43.8Z" transform="translate(-871.54 -512.22)"/></g><g class="cls-1"><path class="cls-2" d="M890.34,534.36v-1.05h6.6a11.47,11.47,0,0,0,4.35-.85,7.3,7.3,0,0,0,3.37-2.9A10.35,10.35,0,0,0,906,524a11.44,11.44,0,0,0-1.31-5.81,8.22,8.22,0,0,0-3.37-3.28,9.49,9.49,0,0,0-4.35-1.05h-17.4v-1.59h17.4q6.81,0,10.9,2.62t4.1,8.48q0,5.85-3.87,8.44t-11.13,2.6Zm-10.8,22.86v-1.59h18a9.4,9.4,0,0,0,4.77-1.26,9.16,9.16,0,0,0,3.51-3.72,12.62,12.62,0,0,0,1.32-6,10.74,10.74,0,0,0-1.32-5.7,7.63,7.63,0,0,0-3.51-3.08,11.91,11.91,0,0,0-4.77-.94h-7.2v-1h7.83a27.24,27.24,0,0,1,7.77,1.05,12.06,12.06,0,0,1,5.67,3.4,9,9,0,0,1,2.13,6.26q0,6.75-4.17,9.67t-11.4,2.93Zm5.4-.6v-43.8h5.73v43.8Z" transform="translate(-871.54 -512.22)"/></g><g class="cls-1"><path class="cls-3" d="M930.79,543.49l2.59,7.35h.1l2.59-7.35h1.11l-3.2,8.73h-1.09l-3.21-8.73Z" transform="translate(-871.54 -512.22)"/><path class="cls-3" d="M940.8,543.49v8.73h-1v-8.73Z" transform="translate(-871.54 -512.22)"/><path class="cls-3" d="M951,543.49v8.73h-1l-4.75-6.85h-.09v6.85h-1v-8.73h1l4.77,6.87H950v-6.87Z" transform="translate(-871.54 -512.22)"/><path class="cls-3" d="M954.35,552.22v-8.73h5.27v.94h-4.21v3h3.94v.94h-3.94v3h4.28v.94Z" transform="translate(-871.54 -512.22)"/><path class="cls-3" d="M962,543.49h1.21l2.42,4.08h.1l2.42-4.08h1.21l-3.15,5.13v3.6h-1.06v-3.6Z" transform="translate(-871.54 -512.22)"/><path class="cls-3" d="M971.38,552.22h-1.11l3.2-8.73h1.09l3.21,8.73h-1.11l-2.61-7.35H974Zm.41-3.41h4.46v.94h-4.46Z" transform="translate(-871.54 -512.22)"/><path class="cls-3" d="M980.33,552.22v-8.73h2.95a3.61,3.61,0,0,1,1.68.35,2.23,2.23,0,0,1,1,.95,3,3,0,0,1,.32,1.38,2.91,2.91,0,0,1-.32,1.37,2.19,2.19,0,0,1-1,.93,3.53,3.53,0,0,1-1.66.34h-2.39v-.95h2.35a2.59,2.59,0,0,0,1.13-.21,1.26,1.26,0,0,0,.62-.58,1.93,1.93,0,0,0,.2-.9,2,2,0,0,0-.2-.92,1.32,1.32,0,0,0-.63-.6,2.42,2.42,0,0,0-1.13-.22h-1.86v7.79Zm4.11-3.92,2.15,3.92h-1.23l-2.11-3.92Z" transform="translate(-871.54 -512.22)"/><path class="cls-3" d="M991.89,552.22H989.2v-8.73H992a4.37,4.37,0,0,1,2.18.52,3.46,3.46,0,0,1,1.38,1.5,5.92,5.92,0,0,1,0,4.67,3.46,3.46,0,0,1-1.42,1.51A4.52,4.52,0,0,1,991.89,552.22Zm-1.63-.94h1.57a3.46,3.46,0,0,0,1.79-.42,2.49,2.49,0,0,0,1.06-1.18,5,5,0,0,0,0-3.66,2.6,2.6,0,0,0-1-1.18,3.27,3.27,0,0,0-1.7-.41h-1.69Z" transform="translate(-871.54 -512.22)"/><path class="cls-3" d="M1003.8,545.67a1.34,1.34,0,0,0-.62-1,2.39,2.39,0,0,0-1.34-.36,2.43,2.43,0,0,0-1,.19,1.55,1.55,0,0,0-.68.51,1.24,1.24,0,0,0-.24.75,1.08,1.08,0,0,0,.17.6,1.53,1.53,0,0,0,.43.41,3.2,3.2,0,0,0,.56.27,5.31,5.31,0,0,0,.53.17l.89.24c.22.06.48.14.76.24a3.64,3.64,0,0,1,.8.43,2.23,2.23,0,0,1,.64.69,2,2,0,0,1,.25,1,2.28,2.28,0,0,1-.37,1.28,2.54,2.54,0,0,1-1.07.91,4,4,0,0,1-1.71.33,4,4,0,0,1-1.62-.3,2.55,2.55,0,0,1-1.08-.84,2.45,2.45,0,0,1-.44-1.26h1.09a1.35,1.35,0,0,0,.34.82,1.71,1.71,0,0,0,.74.47,2.78,2.78,0,0,0,1,.16,2.94,2.94,0,0,0,1.09-.2,1.89,1.89,0,0,0,.76-.55,1.37,1.37,0,0,0,.28-.84,1,1,0,0,0-.24-.7,1.89,1.89,0,0,0-.64-.45,8.63,8.63,0,0,0-.86-.3l-1.07-.3a4,4,0,0,1-1.62-.84,1.84,1.84,0,0,1-.6-1.43,2.1,2.1,0,0,1,.4-1.28,2.6,2.6,0,0,1,1.07-.85,3.87,3.87,0,0,1,3,0,2.71,2.71,0,0,1,1,.82,2.07,2.07,0,0,1,.4,1.18Z" transform="translate(-871.54 -512.22)"/></g></svg>